<svg xmlns="http://www.w3.org/2000/svg" width="12" height="15" viewBox="0 0 12 15"><g><g><g><path fill="#fff" d="M1.191 5.957a4.771 4.771 0 0 1 4.766-4.766 4.771 4.771 0 0 1 4.766 4.766c0 3.225-3.636 6.174-4.766 7.012-1.13-.838-4.766-3.787-4.766-7.012zM5.957 0C4.367 0 2.87.62 1.745 1.745A5.918 5.918 0 0 0 0 5.957C0 7.01.306 8.104.91 9.212c.47.86 1.12 1.732 1.934 2.591a18.077 18.077 0 0 0 2.783 2.394c.2.134.46.134.66 0a18.077 18.077 0 0 0 2.784-2.394c.813-.859 1.464-1.73 1.933-2.591.604-1.108.91-2.203.91-3.255 0-1.59-.619-3.087-1.744-4.212A5.918 5.918 0 0 0 5.957 0z"/></g><g><path fill="#fff" d="M4.766 5.957c0-.657.534-1.191 1.191-1.191S7.15 5.3 7.15 5.957 6.614 7.15 5.957 7.15a1.193 1.193 0 0 1-1.191-1.192zm-1.192 0A2.386 2.386 0 0 0 5.957 8.34 2.386 2.386 0 0 0 8.34 5.957a2.386 2.386 0 0 0-2.383-2.383 2.386 2.386 0 0 0-2.383 2.383z"/></g></g></g></svg>