<svg xmlns="http://www.w3.org/2000/svg" width="13" height="11" viewBox="0 0 13 11"><g><g><g><path fill="#fff" d="M1.787 9.67a.596.596 0 0 1-.595-.596V1.926c0-.329.267-.596.595-.596h9.532c.329 0 .596.267.596.596v7.148a.596.596 0 0 1-.596.596zM0 1.926v7.148a1.79 1.79 0 0 0 1.787 1.788h9.532a1.79 1.79 0 0 0 1.787-1.788V1.926A1.79 1.79 0 0 0 11.32.138H1.787A1.79 1.79 0 0 0 0 1.926z"/></g><g><path fill="#fff" d="M6.553 6.691a.595.595 0 0 1-.341-.107L.254 2.414a.596.596 0 1 1 .684-.976l5.615 3.93 5.616-3.93a.596.596 0 0 1 .683.976l-5.957 4.17a.595.595 0 0 1-.342.107z"/></g></g></g></svg>