<svg xmlns="http://www.w3.org/2000/svg" width="13" height="13" viewBox="0 0 13 13"><g><g><path fill="#fff" d="M11.203 11.838a11.25 11.25 0 0 1-4.88-1.739A11.093 11.093 0 0 1 2.93 6.704a11.247 11.247 0 0 1-1.736-4.899.597.597 0 0 1 .593-.645h1.799c.294 0 .547.22.59.51a8.26 8.26 0 0 0 .449 1.802.597.597 0 0 1-.133.628l-.755.755a.596.596 0 0 0-.097.716 10.132 10.132 0 0 0 3.798 3.798.596.596 0 0 0 .716-.097l.755-.755a.592.592 0 0 1 .629-.133c.58.217 1.186.368 1.801.45a.596.596 0 0 1 .51.618v1.79a.597.597 0 0 1-.645.596zm.05 1.194a1.79 1.79 0 0 0 1.787-1.793v-1.78a1.787 1.787 0 0 0-1.538-1.806h-.005a7.06 7.06 0 0 1-1.542-.385 1.777 1.777 0 0 0-1.886.402l-.002.003-.427.427a8.943 8.943 0 0 1-2.732-2.732l.427-.427.002-.002a1.792 1.792 0 0 0 .403-1.884 7.063 7.063 0 0 1-.385-1.55 1.787 1.787 0 0 0-1.77-1.537h-1.8A1.791 1.791 0 0 0 .008 1.925c.204 1.925.868 3.8 1.92 5.425a12.293 12.293 0 0 0 3.754 3.753 12.447 12.447 0 0 0 5.41 1.921c.053.005.107.008.16.008z"/></g></g></svg>