<svg xmlns="http://www.w3.org/2000/svg" width="29" height="28" viewBox="0 0 29 28"><g><g><g><path fill="#69b430" d="M5.333 28a5 5 0 0 1-5-5V5a5 5 0 0 1 5-5h18a5 5 0 0 1 5 5v18a5 5 0 0 1-5 5z"/></g><g><path fill="#fff" d="M21.013 20.667h-2.767v-4.334c0-1.033-.021-2.362-1.438-2.362-1.441 0-1.662 1.125-1.662 2.287v4.409h-2.767v-8.909h2.654v1.217h.038c.37-.7 1.275-1.437 2.62-1.437 2.8 0 3.322 1.845 3.322 4.245zM9.258 10.542a1.605 1.605 0 0 1 0-3.209c.884 0 1.605.721 1.605 1.605 0 .887-.717 1.604-1.605 1.604zM7.875 20.667v-8.909h2.77v8.909zm14.458-16H6.33A1.34 1.34 0 0 0 5 6.013v15.974a1.34 1.34 0 0 0 1.33 1.346h16.003c.734 0 1.334-.604 1.334-1.345V6.013c0-.742-.6-1.346-1.334-1.346z"/></g></g></g></svg>