<svg xmlns="http://www.w3.org/2000/svg" width="29" height="28" viewBox="0 0 29 28"><g><g><g><path fill="#69b430" d="M5.333 28a5 5 0 0 1-5-5V5a5 5 0 0 1 5-5h18a5 5 0 0 1 5 5v18a5 5 0 0 1-5 5z"/></g><g><path fill="#fff" d="M11.533 14a2.8 2.8 0 1 0 5.6 0 2.8 2.8 0 0 0-5.6 0zm7.7-3.733a1.167 1.167 0 1 1 0-2.334 1.167 1.167 0 0 1 0 2.334zM19 14a4.667 4.667 0 1 1-9.333 0A4.667 4.667 0 0 1 19 14zm-4.667-9.333c-2.535 0-2.852.012-3.847.056-.995.046-1.67.202-2.266.434a4.57 4.57 0 0 0-1.654 1.076A4.555 4.555 0 0 0 5.49 7.887c-.231.595-.387 1.27-.434 2.266C5.01 11.148 5 11.464 5 14s.012 2.852.056 3.847c.047.994.203 1.672.434 2.266a4.577 4.577 0 0 0 1.076 1.654c.466.475 1.03.843 1.654 1.076.596.23 1.272.388 2.266.434.995.047 1.312.056 3.847.056 2.536 0 2.853-.012 3.848-.056.994-.046 1.671-.203 2.266-.434a4.587 4.587 0 0 0 1.654-1.076 4.558 4.558 0 0 0 1.076-1.654c.23-.595.387-1.272.434-2.266.046-.995.056-1.311.056-3.847s-.012-2.852-.056-3.847c-.047-.994-.204-1.672-.434-2.266A4.581 4.581 0 0 0 22.1 6.233a4.55 4.55 0 0 0-1.654-1.076c-.596-.232-1.272-.388-2.266-.434-.995-.047-1.312-.056-3.848-.056z"/></g></g></g></svg>