<svg xmlns="http://www.w3.org/2000/svg" width="28" height="28" viewBox="0 0 28 28"><g><g><g><path fill="#69b430" d="M5 28a5 5 0 0 1-5-5V5a5 5 0 0 1 5-5h18a5 5 0 0 1 5 5v18a5 5 0 0 1-5 5z"/></g><g><path fill="#fff" d="M18.353 17.213c-.216.534-1.191 1.022-1.621 1.045-.43.022-.442.333-2.785-.685s-3.752-3.494-3.863-3.653c-.112-.159-.908-1.294-.865-2.436.043-1.142.669-1.68.892-1.905a.897.897 0 0 1 .634-.267c.185-.003.304-.006.441 0 .136.005.341-.03.519.443.177.471.602 1.631.656 1.75.054.118.088.254.004.406-.084.153-.127.248-.248.379-.123.131-.258.293-.367.394-.121.11-.248.232-.12.47.127.236.568 1.014 1.24 1.655.864.824 1.609 1.097 1.838 1.221.23.125.367.112.51-.038.141-.15.61-.657.774-.882.165-.227.32-.183.53-.098.213.086 1.34.69 1.57.815.23.125.384.189.439.288.054.099.037.563-.178 1.098zM13.796 4.667c-5.06 0-9.164 4.07-9.164 9.093 0 1.718.48 3.324 1.315 4.695l-1.654 4.878 5.074-1.611a9.182 9.182 0 0 0 4.429 1.13c5.061 0 9.164-4.07 9.164-9.092s-4.103-9.093-9.164-9.093z"/></g></g></g></svg>