<svg xmlns="http://www.w3.org/2000/svg" width="28" height="28" viewBox="0 0 28 28"><g><g><g><path fill="#69b430" d="M5 28a5 5 0 0 1-5-5V5a5 5 0 0 1 5-5h18a5 5 0 0 1 5 5v18a5 5 0 0 1-5 5z"/></g><g><path fill="#fff" d="M12.43 16.351v-5.55l4.878 2.775zM23.28 9.054a2.345 2.345 0 0 0-1.65-1.661C20.175 7 14.338 7 14.338 7s-5.837 0-7.293.393a2.346 2.346 0 0 0-1.65 1.66c-.39 1.466-.39 4.523-.39 4.523s0 3.057.39 4.522a2.31 2.31 0 0 0 1.65 1.634c1.456.393 7.293.393 7.293.393s5.837 0 7.293-.393a2.31 2.31 0 0 0 1.65-1.634c.39-1.465.39-4.522.39-4.522s0-3.057-.39-4.522z"/></g></g></g></svg>