<svg xmlns="http://www.w3.org/2000/svg" width="29" height="28" viewBox="0 0 29 28"><g><g><g><path fill="#69b430" d="M5.667 28a5 5 0 0 1-5-5V5a5 5 0 0 1 5-5h18a5 5 0 0 1 5 5v18a5 5 0 0 1-5 5z"/></g><g><path fill="#fff" d="M24.102 14a9.332 9.332 0 0 0-9.333-9.333A9.332 9.332 0 0 0 5.435 14c0 4.658 3.413 8.52 7.875 9.22v-6.522h-2.37V14h2.37v-2.056c0-2.34 1.393-3.631 3.525-3.631 1.022 0 2.09.182 2.09.182v2.296h-1.177c-1.16 0-1.521.72-1.521 1.457V14h2.588l-.414 2.698h-2.174v6.522c4.462-.7 7.875-4.562 7.875-9.22z"/></g></g></g></svg>